<svg width="2995" height="802" viewBox="0 0 2995 802" fill="none" xmlns="http://www.w3.org/2000/svg">
<rect width="274" height="274" fill="#C4C4C4"/>
<rect x="5" y="5" width="264" height="264" fill="#0DFCB5" stroke="black" stroke-width="10"/>
<rect x="5" y="269" width="264" height="264" fill="white" stroke="black" stroke-width="10"/>
<rect x="5" y="533" width="264" height="264" fill="white" stroke="black" stroke-width="10"/>
<rect x="265" width="274" height="274" fill="#C4C4C4"/>
<rect x="270" y="5" width="264" height="264" fill="#0DFCB5" stroke="black" stroke-width="10"/>
<rect x="270" y="269" width="264" height="264" fill="#0DFCB5" stroke="black" stroke-width="10"/>
<rect x="270" y="533" width="264" height="264" fill="#2D2E40" stroke="black" stroke-width="10"/>
<rect x="530" width="274" height="274" fill="#C4C4C4"/>
<rect x="535" y="5" width="264" height="264" fill="#2D2E40" stroke="black" stroke-width="10"/>
<rect x="535" y="269" width="264" height="264" fill="#0DFCB5" stroke="black" stroke-width="10"/>
<rect x="535" y="533" width="264" height="264" fill="#0DFCB5" stroke="black" stroke-width="10"/>
<path d="M948.881 244.504V328H920.756V114.719H999.418C1022.76 114.719 1041.02 120.676 1054.2 132.59C1067.48 144.504 1074.12 160.275 1074.12 179.904C1074.12 200.607 1067.63 216.574 1054.64 227.805C1041.75 238.938 1023.25 244.504 999.125 244.504H948.881ZM948.881 221.506H999.418C1014.46 221.506 1025.98 217.99 1033.99 210.959C1042 203.83 1046 193.576 1046 180.197C1046 167.502 1042 157.346 1033.99 149.729C1025.98 142.111 1014.99 138.156 1001.03 137.863H948.881V221.506ZM991.361 642.646L1052.3 466.719H1083.06L1003.96 680H979.057L900.102 466.719H930.717L991.361 642.646Z" fill="#0DFCB5"/>
<path d="M1227.79 272.336H1138.43L1118.36 328H1089.36L1170.8 114.719H1195.41L1277.01 328H1248.15L1227.79 272.336ZM1146.93 249.191H1219.44L1183.11 149.436L1146.93 249.191ZM1434.04 137.863H1365.48V328H1337.5V137.863H1269.1V114.719H1434.04V137.863ZM1629.59 328H1601.32V229.416H1493.8V328H1465.68V114.719H1493.8V206.418H1601.32V114.719H1629.59V328ZM1797.17 233.811H1707.67V328H1679.54V114.719H1811.67V137.863H1707.67V210.812H1797.17V233.811ZM1875.54 328H1847.42V114.719H1875.54V328ZM2091.02 328H2062.75L1955.38 163.645V328H1927.1V114.719H1955.38L2063.04 279.807V114.719H2091.02V328ZM2140.97 328V114.719H2201.18C2219.73 114.719 2236.14 118.82 2250.39 127.023C2264.65 135.227 2275.64 146.896 2283.35 162.033C2291.17 177.17 2295.12 194.553 2295.22 214.182V227.805C2295.22 247.922 2291.31 265.549 2283.5 280.686C2275.79 295.822 2264.7 307.443 2250.25 315.549C2235.89 323.654 2219.14 327.805 2200 328H2140.97ZM2169.1 137.863V305.002H2198.69C2220.37 305.002 2237.21 298.264 2249.22 284.787C2261.33 271.311 2267.39 252.121 2267.39 227.219V214.768C2267.39 190.549 2261.67 171.75 2250.25 158.371C2238.92 144.895 2222.81 138.059 2201.91 137.863H2169.1ZM2368.02 328H2339.9V114.719H2368.02V328ZM2583.5 328H2555.23L2447.86 163.645V328H2419.58V114.719H2447.86L2555.52 279.807V114.719H2583.5V328ZM2790.92 300.021C2783.7 310.373 2773.59 318.137 2760.6 323.312C2747.71 328.391 2732.67 330.93 2715.48 330.93C2698.1 330.93 2682.67 326.877 2669.19 318.771C2655.72 310.568 2645.27 298.947 2637.85 283.908C2630.52 268.869 2626.76 251.438 2626.57 231.613V213.01C2626.57 180.881 2634.04 155.979 2648.98 138.303C2664.02 120.627 2685.11 111.789 2712.26 111.789C2734.53 111.789 2752.45 117.502 2766.02 128.928C2779.59 140.256 2787.89 156.369 2790.92 177.268H2762.8C2757.52 149.045 2740.73 134.934 2712.41 134.934C2693.56 134.934 2679.25 141.574 2669.49 154.855C2659.82 168.039 2654.94 187.18 2654.84 212.277V229.709C2654.84 253.635 2660.31 272.678 2671.24 286.838C2682.18 300.9 2696.98 307.932 2715.63 307.932C2726.18 307.932 2735.4 306.76 2743.31 304.416C2751.22 302.072 2757.77 298.117 2762.94 292.551V244.65H2713.58V221.799H2790.92V300.021ZM1141.95 680H1113.82V466.719H1141.95V680ZM1256.35 584.932C1232.23 577.998 1214.65 569.502 1203.62 559.443C1192.68 549.287 1187.21 536.787 1187.21 521.943C1187.21 505.146 1193.9 491.279 1207.28 480.342C1220.76 469.307 1238.24 463.789 1259.72 463.789C1274.37 463.789 1287.41 466.621 1298.83 472.285C1310.36 477.949 1319.24 485.762 1325.49 495.723C1331.84 505.684 1335.01 516.572 1335.01 528.389H1306.74C1306.74 515.498 1302.64 505.391 1294.44 498.066C1286.23 490.645 1274.66 486.934 1259.72 486.934C1245.85 486.934 1235.01 490.01 1227.2 496.162C1219.49 502.217 1215.63 510.664 1215.63 521.504C1215.63 530.195 1219.29 537.568 1226.62 543.623C1234.04 549.58 1246.59 555.049 1264.26 560.029C1282.04 565.01 1295.9 570.527 1305.86 576.582C1315.92 582.539 1323.34 589.521 1328.13 597.529C1333.01 605.537 1335.45 614.961 1335.45 625.801C1335.45 643.086 1328.71 656.953 1315.24 667.402C1301.76 677.754 1283.74 682.93 1261.19 682.93C1246.54 682.93 1232.87 680.146 1220.17 674.58C1207.47 668.916 1197.66 661.201 1190.73 651.436C1183.89 641.67 1180.47 630.586 1180.47 618.184H1208.74C1208.74 631.074 1213.48 641.279 1222.95 648.799C1232.52 656.221 1245.27 659.932 1261.19 659.932C1276.03 659.932 1287.41 656.904 1295.32 650.85C1303.23 644.795 1307.18 636.543 1307.18 626.094C1307.18 615.645 1303.52 607.588 1296.2 601.924C1288.87 596.162 1275.59 590.498 1256.35 584.932ZM1521.78 466.719V611.738C1521.68 631.855 1515.34 648.311 1502.74 661.104C1490.24 673.896 1473.25 681.074 1451.76 682.637L1444.29 682.93C1420.95 682.93 1402.35 676.631 1388.48 664.033C1374.61 651.436 1367.58 634.102 1367.39 612.031V466.719H1395.22V611.152C1395.22 626.582 1399.47 638.594 1407.96 647.188C1416.46 655.684 1428.57 659.932 1444.29 659.932C1460.21 659.932 1472.37 655.684 1480.77 647.188C1489.26 638.691 1493.51 626.729 1493.51 611.299V466.719H1521.78ZM1680.72 624.336H1591.36L1571.29 680H1542.29L1623.73 466.719H1648.34L1729.94 680H1701.08L1680.72 624.336ZM1599.86 601.191H1672.37L1636.04 501.436L1599.86 601.191ZM1786.92 657.002H1887.99V680H1758.65V466.719H1786.92V657.002ZM1950.25 680H1922.12V466.719H1950.25V680ZM2022.9 657.002H2144.93V680H1989.65V658.906L2106.55 489.863H1991.56V466.719H2140.24V487.373L2022.9 657.002ZM2301.96 581.416H2209.53V657.002H2316.9V680H2181.4V466.719H2315.43V489.863H2209.53V558.418H2301.96V581.416ZM2430.13 593.721H2380.03V680H2351.76V466.719H2422.37C2446.39 466.719 2464.85 472.188 2477.74 483.125C2490.73 494.062 2497.22 509.98 2497.22 530.879C2497.22 544.16 2493.61 555.732 2486.38 565.596C2479.25 575.459 2469.29 582.832 2456.5 587.715L2506.6 678.242V680H2476.42L2430.13 593.721ZM2380.03 570.723H2423.25C2437.21 570.723 2448.29 567.109 2456.5 559.883C2464.8 552.656 2468.95 542.988 2468.95 530.879C2468.95 517.695 2464.99 507.588 2457.08 500.557C2449.27 493.525 2437.94 489.961 2423.1 489.863H2380.03V570.723Z" fill="white"/>
</svg>
